<?xml version="1.0"?>
<svg width="800" height="250" xmlns="http://www.w3.org/2000/svg" xmlns:svg="http://www.w3.org/2000/svg" xmlns:xlink="http://www.w3.org/1999/xlink">
 <g class="layer">
  <title>Layer 1</title>
  <g class="entry" id="svg_7" stroke="red">
   <line id="svg_8" x1="83.24" x2="83.24" y1="196" y2="107.44"/>
  </g>
  <g class="entry" id="svg_9" stroke="red">
   <line id="svg_10" x1="128.59" x2="128.59" y1="196" y2="190.96"/>
  </g>
  <g class="entry" id="svg_11" stroke="red">
   <line id="svg_12" x1="132.76" x2="132.76" y1="196" y2="190.96"/>
  </g>
  <g class="entry" id="svg_13" stroke="red">
   <line id="svg_14" x1="132.81" x2="132.81" y1="196" y2="190.24"/>
  </g>
  <g class="entry" id="svg_15" stroke="red">
   <line id="svg_16" x1="141.15" x2="141.15" y1="196" y2="179.08"/>
  </g>
  <g class="entry" id="svg_17" stroke="red">
   <line id="svg_18" x1="190.67" x2="190.67" y1="196" y2="185.92"/>
  </g>
  <g class="entry" id="svg_19" stroke="red">
   <line id="svg_20" x1="194.83" x2="194.83" y1="196" y2="160.72"/>
  </g>
  <g class="entry" id="svg_21" stroke="red">
   <line id="svg_22" x1="244.41" x2="244.41" y1="196" y2="179.08"/>
  </g>
  <g class="entry" id="svg_23" stroke="red">
   <line id="svg_24" x1="248.57" x2="248.57" y1="196" y2="187"/>
  </g>
  <g class="entry" id="svg_25" stroke="red">
   <line id="svg_26" x1="252.74" x2="252.74" y1="196" y2="106.36"/>
  </g>
  <g class="entry" id="svg_27" stroke="red">
   <line id="svg_28" x1="310.5" x2="310.5" y1="196" y2="188.08"/>
  </g>
  <g class="entry" id="svg_29" stroke="red">
   <line id="svg_30" x1="356.02" x2="356.02" y1="196" y2="180.16"/>
  </g>
  <g class="entry" id="svg_31" stroke="red">
   <line id="svg_32" x1="360.09" x2="360.09" y1="196" y2="160.72"/>
  </g>
  <g class="entry" id="svg_33" stroke="red">
   <line id="svg_34" x1="364.35" x2="364.35" y1="196" y2="28.6"/>
  </g>
  <g class="entry" id="svg_35" stroke="red">
   <line id="svg_36" x1="368.42" x2="368.42" y1="196" y2="181.96"/>
  </g>
  <g class="entry" id="svg_37" stroke="red">
   <line id="svg_38" x1="417.95" x2="417.95" y1="196" y2="58.84"/>
  </g>
  <g class="entry" id="svg_39" stroke="red">
   <line id="svg_40" x1="467.63" x2="467.63" y1="196" y2="187"/>
  </g>
  <g class="entry" id="svg_41" stroke="red">
   <line id="svg_42" x1="471.78" x2="471.78" y1="196" y2="192.04"/>
  </g>
  <g class="entry" id="svg_43" stroke="red">
   <line id="svg_44" x1="480.03" x2="480.03" y1="196" y2="9.36"/>
  </g>
  <g class="entry" id="svg_45" stroke="red">
   <line id="svg_46" x1="653.59" x2="653.59" y1="196" y2="190.96"/>
  </g>
  <g class="entry" id="svg_47" stroke="red">
   <line id="svg_48" x1="715.66" x2="715.66" y1="196" y2="50.56"/>
  </g>
  <g id="svg_49">
   <line id="svg_50" stroke="black" x1="19" x2="777.9" y1="196" y2="196"/>
   <use id="svg_131" transform="matrix(0.961164 0 0 0.934995 115.857 57.2955)" x="434.54" xlink:href="#svg_130" y="-15.59"/>
   <use id="svg_138" transform="matrix(0.0982109 0 0 0.098061 97.5237 75.0054)" x="2338.04" xlink:href="#svg_137" y="736.26"/>
  </g>
 </g>
 <defs>
  <symbol height="126px" id="svg_130" viewBox="196 75 115 126" width="115px" xmlns="http://www.w3.org/2000/svg">
   <style>text {font-family: sans-serif;} #mol1 { pointer-events:none; } #mol1 .event  { pointer-events:all; } line { stroke-linecap:round; } polygon { stroke-linejoin:round; }</style>
   <text fill="rgb(48,80,248)" font-size="14" id="svg_1" x="254.87" y="99.49">N</text>
   <text fill="rgb(48,80,248)" font-size="14" id="svg_2" x="216.89" y="107.57">N</text>
   <text fill="rgb(48,80,248)" font-size="14" id="svg_3" x="221.47" y="151.18">N</text>
   <text fill="rgb(255,13,13)" font-size="14" id="svg_4" x="229.72" y="191.84">O</text>
   <text fill="rgb(48,80,248)" font-size="14" id="svg_5" x="261.01" y="164.02">N</text>
   <text fill="rgb(255,13,13)" font-size="14" id="svg_6" x="291.51" y="136.21">O</text>
   <line id="svg_51" stroke="rgb(0,0,0)" stroke-width="1.44" x1="238" x2="227.99" y1="85.07" y2="96.18"/>
   <line id="svg_52" stroke="rgb(0,0,0)" stroke-width="1.44" x1="238.66" x2="230.67" y1="89.72" y2="98.59"/>
   <line id="svg_53" stroke="rgb(0,0,0)" stroke-width="1.44" x1="241.19" x2="235.73" y1="162.8" y2="179.62"/>
   <line id="svg_54" stroke="rgb(0,0,0)" stroke-width="1.44" x1="244.62" x2="239.15" y1="163.91" y2="180.73"/>
   <line id="svg_55" stroke="rgb(0,0,0)" stroke-width="1.44" x1="272.83" x2="290.88" y1="138.51" y2="134.67"/>
   <line id="svg_56" stroke="rgb(0,0,0)" stroke-width="1.44" x1="272.08" x2="290.13" y1="134.99" y2="131.15"/>
   <line id="svg_57" stroke="rgb(0,0,0)" stroke-width="1.44" x1="233.94" x2="257.42" y1="123.69" y2="118.7"/>
   <line id="svg_58" stroke="rgb(0,0,0)" stroke-width="1.44" x1="236.14" x2="253.72" y1="119.54" y2="115.8"/>
   <line id="svg_59" stroke="rgb(0,0,0)" stroke-width="1.44" x1="280.71" x2="265.98" y1="82.83" y2="91.33"/>
   <line id="svg_60" stroke="rgb(0,0,0)" stroke-width="1.44" x1="253.87" x2="238" y1="92.13" y2="85.07"/>
   <line id="svg_61" stroke="rgb(0,0,0)" stroke-width="1.44" x1="225.98" x2="233.94" y1="109.9" y2="123.69"/>
   <line id="svg_62" stroke="rgb(0,0,0)" stroke-width="1.44" x1="233.94" x2="228.8" y1="123.69" y2="139.51"/>
   <line id="svg_63" stroke="rgb(0,0,0)" stroke-width="1.44" x1="220.47" x2="203.05" y1="147.8" y2="151.5"/>
   <line id="svg_64" stroke="rgb(0,0,0)" stroke-width="1.44" x1="232.58" x2="242.58" y1="153.24" y2="164.35"/>
   <line id="svg_65" stroke="rgb(0,0,0)" stroke-width="1.44" x1="242.58" x2="260.01" y1="164.35" y2="160.64"/>
   <line id="svg_66" stroke="rgb(0,0,0)" stroke-width="1.44" x1="272.11" x2="282.12" y1="166.08" y2="177.19"/>
   <line id="svg_67" stroke="rgb(0,0,0)" stroke-width="1.44" x1="268.33" x2="273.48" y1="152.36" y2="136.53"/>
   <line id="svg_68" stroke="rgb(0,0,0)" stroke-width="1.44" x1="273.48" x2="257.42" y1="136.53" y2="118.7"/>
   <line id="svg_69" stroke="rgb(0,0,0)" stroke-width="1.44" x1="259.19" x2="257.42" y1="101.83" y2="118.7"/>
   <line class="event" id="svg_129" opacity="0" stroke-width="8" x1="238" x2="221.94" y1="85.07" y2="102.9"/>
   <line class="event" id="svg_128" opacity="0" stroke-width="8" x1="242.58" x2="235.17" y1="164.35" y2="187.17"/>
   <line class="event" id="svg_127" opacity="0" stroke-width="8" x1="273.48" x2="296.95" y1="136.53" y2="131.54"/>
   <line class="event" id="svg_126" opacity="0" stroke-width="8" x1="233.94" x2="257.42" y1="123.69" y2="118.7"/>
   <line class="event" id="svg_125" opacity="0" stroke-width="8" x1="280.71" x2="259.93" y1="82.83" y2="94.83"/>
   <line class="event" id="svg_124" opacity="0" stroke-width="8" x1="259.93" x2="238" y1="94.83" y2="85.07"/>
   <line class="event" id="svg_123" opacity="0" stroke-width="8" x1="221.94" x2="233.94" y1="102.9" y2="123.69"/>
   <line class="event" id="svg_122" opacity="0" stroke-width="8" x1="233.94" x2="226.52" y1="123.69" y2="146.51"/>
   <line class="event" id="svg_121" opacity="0" stroke-width="8" x1="226.52" x2="203.05" y1="146.51" y2="151.5"/>
   <line class="event" id="svg_120" opacity="0" stroke-width="8" x1="226.52" x2="242.58" y1="146.51" y2="164.35"/>
   <line class="event" id="svg_119" opacity="0" stroke-width="8" x1="242.58" x2="266.06" y1="164.35" y2="159.36"/>
   <line class="event" id="svg_118" opacity="0" stroke-width="8" x1="266.06" x2="282.12" y1="159.36" y2="177.19"/>
   <line class="event" id="svg_117" opacity="0" stroke-width="8" x1="266.06" x2="273.48" y1="159.36" y2="136.53"/>
   <line class="event" id="svg_116" opacity="0" stroke-width="8" x1="273.48" x2="257.42" y1="136.53" y2="118.7"/>
   <line class="event" id="svg_115" opacity="0" stroke-width="8" x1="259.93" x2="257.42" y1="94.83" y2="118.7"/>
   <circle class="event" cx="280.71" cy="82.83" id="svg_114" opacity="0" r="8"/>
   <circle class="event" cx="259.93" cy="94.83" id="svg_113" opacity="0" r="8"/>
   <circle class="event" cx="238" cy="85.07" id="svg_112" opacity="0" r="8"/>
   <circle class="event" cx="221.94" cy="102.9" id="svg_111" opacity="0" r="8"/>
   <circle class="event" cx="233.94" cy="123.69" id="svg_110" opacity="0" r="8"/>
   <circle class="event" cx="226.52" cy="146.51" id="svg_109" opacity="0" r="8"/>
   <circle class="event" cx="203.05" cy="151.5" id="svg_108" opacity="0" r="8"/>
   <circle class="event" cx="242.58" cy="164.35" id="svg_107" opacity="0" r="8"/>
   <circle class="event" cx="235.17" cy="187.17" id="svg_106" opacity="0" r="8"/>
   <circle class="event" cx="266.06" cy="159.36" id="svg_105" opacity="0" r="8"/>
   <circle class="event" cx="282.12" cy="177.19" id="svg_104" opacity="0" r="8"/>
   <circle class="event" cx="273.48" cy="136.53" id="svg_103" opacity="0" r="8"/>
   <circle class="event" cx="296.95" cy="131.54" id="svg_102" opacity="0" r="8"/>
   <circle class="event" cx="257.42" cy="118.7" id="svg_101" opacity="0" r="8"/>
  </symbol>
  <symbol height="800px" id="svg_137" viewBox="0 0 490.4 490.4" width="800px" xmlns="http://www.w3.org/2000/svg" xmlns:xlink="http://www.w3.org/1999/xlink">
   <g id="svg_70">
    <path d="m484.1,454.8l-110.5,-110.6c29.8,-36.3 47.6,-82.8 47.6,-133.4c0,-116.3 -94.3,-210.6 -210.6,-210.6s-210.6,94.3 -210.6,210.6s94.3,210.6 210.6,210.6c50.8,0 97.4,-18 133.8,-48l110.5,110.5c12.9,11.8 25,4.2 29.2,0c8.4,-8.3 8.4,-20.8 0,-29.1zm-443,-244c0,-93.6 75.9,-169.5 169.5,-169.5s169.6,75.9 169.6,169.5s-75.9,169.5 -169.5,169.5s-169.6,-75.9 -169.6,-169.5z" id="svg_71"/>
   </g>
  </symbol>
 </defs>
</svg>